<svg width="28" height="28" viewBox="0 0 28 28" fill="none" xmlns="http://www.w3.org/2000/svg">
<g clip-path="url(#clip0_304_13)">
<path fill-rule="evenodd" clip-rule="evenodd" d="M14 28C17.713 28 21.274 26.525 23.8995 23.8995C26.525 21.274 28 17.713 28 14C28 10.287 26.525 6.72601 23.8995 4.1005C21.274 1.475 17.713 0 14 0C10.287 0 6.72601 1.475 4.1005 4.1005C1.475 6.72601 0 10.287 0 14C0 17.713 1.475 21.274 4.1005 23.8995C6.72601 26.525 10.287 28 14 28V28Z" fill="#AD9454"/>
<path fill-rule="evenodd" clip-rule="evenodd" d="M14 28C17.713 28 21.274 26.525 23.8995 23.8995C26.525 21.274 28 14 28 14C28 14 26.525 6.72601 23.8995 4.1005C21.274 1.475 17.713 0 14 0C10.287 0 6.72601 1.475 4.1005 4.1005C1.475 6.72601 0 10.287 0 14C0 17.713 1.475 21.274 4.1005 23.8995C6.72601 26.525 10.287 28 14 28Z" fill="url(#paint0_linear_304_13)" fill-opacity="0.3"/>
<path d="M8.18994 14.77L13.9999 18.21L19.7999 14.77L13.9999 22.96L8.18994 14.77V14.77Z" fill="url(#paint1_linear_304_13)"/>
<path d="M13.9999 16.93L8.18994 13.49L13.9999 4.33997L19.8099 13.49L13.9999 16.93Z" fill="white"/>
</g>
<defs>
<linearGradient id="paint0_linear_304_13" x1="0" y1="0" x2="14" y2="28" gradientUnits="userSpaceOnUse">
<stop stop-color="#7D5F5F"/>
<stop offset="1" stop-color="white" stop-opacity="0"/>
</linearGradient>
<linearGradient id="paint1_linear_304_13" x1="13.9999" y1="14.77" x2="13.9999" y2="22.96" gradientUnits="userSpaceOnUse">
<stop stop-color="white"/>
<stop offset="1" stop-color="white" stop-opacity="0.9"/>
</linearGradient>
<clipPath id="clip0_304_13">
<rect width="28" height="28" fill="white"/>
</clipPath>
</defs>
</svg>
