<svg width="330" height="330" viewBox="0 0 330 330" fill="none" xmlns="http://www.w3.org/2000/svg">
<path d="M165 330C197.634 330 229.535 320.323 256.669 302.192C283.803 284.062 304.952 258.293 317.44 228.143C329.928 197.993 333.196 164.817 326.829 132.81C320.463 100.803 304.748 71.4031 281.673 48.3274C258.597 25.2518 229.197 9.53706 197.19 3.1705C165.183 -3.19606 132.007 0.0714929 101.857 12.5599C71.7074 25.0484 45.9379 46.1969 27.8075 73.331C9.67708 100.465 0 132.366 0 165C0 208.761 17.3839 250.729 48.3274 281.673C79.2709 312.616 121.239 330 165 330Z" fill="#0052FF"/>
<path fill-rule="evenodd" clip-rule="evenodd" d="M164.612 281.197C228.785 281.197 280.809 229.174 280.809 165C280.809 100.826 228.785 48.8028 164.612 48.8028C103.731 48.8028 53.7858 95.6236 48.8199 155.221H221.248V174.57H48.8028C53.6695 234.267 103.66 281.197 164.612 281.197Z" fill="white"/>
</svg>
