
<svg xmlns="http://www.w3.org/2000/svg" xmlns:xlink="http://www.w3.org/1999/xlink" viewBox="0 0 400 400"><defs><style>.cls-1{opacity:0;}.cls-2{fill:url(#radial-gradient);}.cls-3{opacity:0.7;isolation:isolate;fill:url(#linear-gradient);}.cls-4{fill:url(#linear-gradient-2);}</style><radialGradient id="radial-gradient" cx="-1713.42" cy="-1123.38" r="1.99" gradientTransform="matrix(-144.9, 32.65, 39.12, 173.61, -204076.26, 251069.88)" gradientUnits="userSpaceOnUse"><stop offset="0" stop-color="#fff"/><stop offset="0.12" stop-color="#fff" stop-opacity="0.95"/><stop offset="1" stop-color="#fff" stop-opacity="0"/></radialGradient><linearGradient id="linear-gradient" x1="200.8" y1="-3207.07" x2="200.8" y2="-3373.9" gradientTransform="matrix(1, 0, 0, -1, 0, -3040.56)" gradientUnits="userSpaceOnUse"><stop offset="0" stop-color="#fff"/><stop offset="1" stop-color="#fff" stop-opacity="0.5"/></linearGradient><linearGradient id="linear-gradient-2" x1="240.48" y1="-3202.99" x2="240.48" y2="-3445.14" gradientTransform="matrix(1, 0, 0, -1, 0, -3040.56)" gradientUnits="userSpaceOnUse"><stop offset="0" stop-color="#fff"/><stop offset="1" stop-color="#fff" stop-opacity="0"/></linearGradient></defs><title>Asset 46</title><g id="Layer_2" data-name="Layer 2"><g id="Layer_1-2" data-name="Layer 1"><rect class="cls-1" width="400" height="400"/><path class="cls-2" d="M273.83,144.32a6.25,6.25,0,0,1-7.12,6,120,120,0,0,0-25.34-.07c-17,1.77-31.2,7-44.25,11.87h0l-2.36.87c-13.86,5.12-26.64,9.53-41.79,9.88A89,89,0,0,1,133.21,171a15.53,15.53,0,0,1-12.29-12.08,78.05,78.05,0,0,1-1.47-15.08,77.19,77.19,0,0,1,154.38,0Z"/><path class="cls-3" d="M126.32,182.68c-5.8-1.39-11.09,4.83-8.23,10.07l75.77,138.91a3.21,3.21,0,0,0,5.64,0l83.63-153.32a9.11,9.11,0,0,0-6-13.46,113.41,113.41,0,0,0-34.5-1.89c-15.37,1.61-28.14,6.34-41.4,11.25l-2.11.78c-13.88,5.13-28.44,10.27-45.95,10.67A104,104,0,0,1,126.32,182.68Z"/><path class="cls-4" d="M196.64,178.63a3.86,3.86,0,0,1,2.52-3.61l2.11-.78c13.26-4.91,26-9.64,41.4-11.25a113.41,113.41,0,0,1,34.5,1.89,9.11,9.11,0,0,1,6,13.46L199.5,331.66a3.16,3.16,0,0,1-2.86,1.67Z"/></g></g></svg>