<svg xmlns="http://www.w3.org/2000/svg" xmlns:v="https://vecta.io/nano" viewBox="26.7 21.9 47.02 56.1"><path d="M50.6 73.3c-17.7-.1-19-16.6-17.5-20.4 0 0 1.1 8.8 11.1 6.6 9.9-2.2 4.9-17.1 4.7-17.6.1.1 1.9 1.8 3.4 4.1 1.6 2.4 2 6.4 1.5 10-.5 3.5-.2 8.4 6.2 6.6 7.9-2.2 7.2-14.6 7.2-14.6 3.6 4.1 3.9 25.4-16.6 25.3z" fill="#fed428"/><path d="M64.1 38.6c-.4 2.9.6 8.5.2 12-.3 2.9-1.8 5.1-3.1 5.7-1.2.6-2 .2-2-.8-.1-1.1.7-3 .6-4.6-.1-2-1.3-4.3-1.3-4.3l.7-1.3.6.9a25.93 25.93 0 0 1 .8 1.3s1.2-7.4 3.3-11.6c1.5-3 5.2-4.2 5.4-4.3-2.9 1.7-4.7 3.4-5.2 7z" fill="#c60404"/><path d="M62 37.6l-1.3 4.2c-.6 1.8-1.5 3.6-1.5 3.6l-.7 1.3s-1-2-2.1-3.5l-2.3-3.1s.2-.6.4-1.6l.9.7s.6-2.1.7-5.2c.1-2.6-.7-5.6-.7-5.6 1 .8 2.6 2.3 3.7 3.8 1.4 1.7 2.9 5.4 2.9 5.4z" fill="#a70c0c"/><path d="M44.3 50c-.1.2-3 4.8-7.4 2.2-.8-.5-1.4-1-1.8-1.7-2.6-4 .7-10.8.8-11.2v.1.1.1c-.3 1.7-1.3 8.6 1.3 10.5.1.1.2.1.3.2.2.1.3.2.5.3 2.4 1.1 4.3.5 5.4 0 .1 0 .1-.1.2-.1.4-.3.6-.5.7-.5z" fill="#a40a0a"/><path d="M56.2 34c-.1 3.1-.7 5.2-.7 5.2l-.9-.7c.3-1.1.6-2.7.7-4.2.3-3.3-.7-6.5-.7-6.5s.3.3.8.7c.1 0 .9 2.9.8 5.5zM44.3 50c-.1 0-.3.2-.7.5-.1 0-.1.1-.2.1-1.1.5-3 1.1-5.4 0-.2-.1-.3-.2-.5-.3-.1-.1-.2-.1-.3-.2-2.6-1.9-1.6-8.9-1.3-10.5-.1 1.2-.5 5.5 1.3 8.3 2 3.2 7.1 2.1 7.1 2.1zm27-4.5c-2.4-4.9-2.4-8.7-2.4-10.5 0-1.9 1.3-3.4 1.3-3.4s-.4 0-.9.1c-1.1.3-3.3.8-4.3 1.7-2.3 2-2.9 4.2-2.9 4.2s-.7 2.4-1.3 4.2-1.5 3.6-1.5 3.6l.6.9a25.93 25.93 0 0 1 .8 1.3S61.9 40.2 64 36c1.5-3 5.2-4.2 5.4-4.3-3 1.5-4.8 3.2-5.2 6.9-.4 2.9.6 8.5.2 12-.3 2.9-1.8 5.1-3.1 5.7-1.2.6-2 .2-2-.8-.1-1.1.7-3 .6-4.6-.1-2-1.3-4.3-1.3-4.3s-1-2-2.1-3.5L54.2 40s-4-3.9-3.2-9.8c.6-5 4.8-8.1 5-8.3-.4.1-6 1.3-9.4 6.3-2.8 4.1-3.2 8.3-1.8 13.9 1.2 5-.4 7.8-.4 7.8-.1.2-3 4.8-7.4 2.2-.8-.5-1.4-1-1.8-1.7-2.6-4 .7-10.8.8-11.2 0 0-9.3 7.1-9.3 16.4 0 9.8 7.8 22.4 23.4 22.4 18 0 23.2-15.3 23.5-20 .3-4 .2-7.5-2.3-12.5zM50.6 73.3c-17.7-.1-19-16.6-17.5-20.4 0 0 1.1 8.8 11.1 6.6 9.9-2.2 4.9-17.1 4.7-17.6.1.1 1.9 1.8 3.4 4.1 1.6 2.4 2 6.4 1.5 10-.5 3.5-.2 8.4 6.2 6.6 7.9-2.2 7.2-14.6 7.2-14.6 3.6 4.1 3.9 25.4-16.6 25.3z" fill="#f12d2d"/></svg>