<svg width="42" height="48" fill="none" xmlns="http://www.w3.org/2000/svg"
  alt="Logo for Push">
  <title>Push</title>
  <g clip-path="url(#clip0_2132_7445)">
    <path
      d="M22.6281 47.9999C23.9346 48.0008 25.2132 47.6228 26.3084 46.912C27.4036 46.2012 28.2682 45.1881 28.7972 43.996C28.8555 43.8635 28.8797 43.7186 28.8677 43.5745C28.8557 43.4303 28.8079 43.2913 28.7285 43.1703C28.6491 43.0492 28.5407 42.9499 28.413 42.8812C28.2854 42.8126 28.1426 42.7768 27.9976 42.7771H17.2635C17.1185 42.7768 16.9757 42.8126 16.8481 42.8812C16.7204 42.9499 16.612 43.0492 16.5326 43.1703C16.4532 43.2913 16.4054 43.4303 16.3934 43.5745C16.3814 43.7186 16.4056 43.8635 16.4639 43.996C16.993 45.187 17.857 46.1992 18.9512 46.9099C20.0453 47.6206 21.3226 47.9992 22.6281 47.9999Z"
      fill="url(#paint0_linear_2132_7445)"></path>
    <path
      d="M39.097 36.2961C38.682 36.2961 38.271 36.2145 37.8877 36.056C37.5043 35.8974 37.156 35.665 36.8627 35.3721C36.5693 35.0791 36.3367 34.7314 36.1781 34.3487C36.0195 33.966 35.9381 33.5559 35.9384 33.1418V22.0141C35.9384 16.1855 32.2542 11.0662 27.0278 9.18979C26.7649 9.09777 26.524 8.95217 26.3205 8.76225C26.1171 8.57234 25.9554 8.34225 25.8458 8.08662C25.5848 7.45025 25.1403 6.90561 24.5685 6.52185C23.9968 6.13808 23.3237 5.93248 22.6346 5.93116C21.9456 5.92984 21.2717 6.13286 20.6985 6.51444C20.1253 6.89601 19.6786 7.43895 19.4152 8.07431C19.3082 8.32666 19.1491 8.55373 18.9485 8.74081C18.7478 8.92788 18.51 9.07078 18.2505 9.16023C15.6418 10.0658 13.3803 11.7594 11.7801 14.0059C10.1798 16.2523 9.32001 18.9402 9.32014 21.6964V33.1393C9.32146 33.9723 8.99232 34.7719 8.40463 35.3634C7.81694 35.9549 7.0185 36.2903 6.1838 36.2961C5.98721 36.2939 5.7921 36.3303 5.60964 36.4033C5.42717 36.4764 5.26095 36.5846 5.12045 36.7218C4.97995 36.8591 4.86795 37.0226 4.79085 37.2031C4.71375 37.3835 4.67308 37.5774 4.67114 37.7736C4.67114 38.1654 4.82712 38.5412 5.10478 38.8183C5.38245 39.0954 5.75904 39.251 6.15172 39.251H39.0896C39.4822 39.251 39.8588 39.0954 40.1365 38.8183C40.4142 38.5412 40.5701 38.1654 40.5701 37.7736C40.5701 37.383 40.4152 37.0083 40.1391 36.7315C39.8631 36.4546 39.4884 36.2981 39.097 36.2961Z"
      fill="url(#paint1_linear_2132_7445)"></path>
    <path
      d="M32.1654 6.4096C33.9841 6.8107 35.6292 7.77513 36.8656 9.16509C38.1021 10.5551 38.8667 12.2994 39.0501 14.149C39.0688 14.3501 39.1667 14.5357 39.3225 14.6647C39.4782 14.7938 39.6789 14.8559 39.8805 14.8372C40.082 14.8186 40.268 14.7209 40.3973 14.5655C40.5267 14.4101 40.5888 14.2098 40.5702 14.0086C40.3656 11.833 39.4717 9.77902 38.018 8.14471C36.5644 6.51041 34.6268 5.38081 32.4862 4.91983C32.4336 4.90803 32.3798 4.90225 32.3258 4.9026C32.139 4.9055 31.9597 4.97652 31.8218 5.10228C31.6838 5.22803 31.5968 5.39983 31.577 5.58524C31.5573 5.77065 31.6063 5.95686 31.7147 6.10872C31.8231 6.26059 31.9834 6.36762 32.1654 6.4096Z"
      fill="url(#paint2_linear_2132_7445)"></path>
    <path
      d="M33.0217 1.50708C35.8537 2.12903 38.4159 3.62896 40.3417 5.79222C42.2675 7.95549 43.4583 10.6712 43.7436 13.5508C43.7525 13.6503 43.7811 13.7471 43.8277 13.8356C43.8743 13.924 43.9379 14.0025 44.015 14.0663C44.092 14.1301 44.181 14.1782 44.2767 14.2076C44.3724 14.237 44.473 14.2473 44.5727 14.2378C44.6726 14.2292 44.7699 14.2008 44.8588 14.1545C44.9478 14.1081 45.0266 14.0447 45.0909 13.9678C45.1551 13.8908 45.2034 13.802 45.2331 13.7063C45.2627 13.6107 45.2731 13.5101 45.2636 13.4104C44.9616 10.2048 43.6442 7.17858 41.5025 4.77043C39.3608 2.36229 36.5061 0.697455 33.3524 0.0173184C33.2995 0.00684852 33.2459 0.00108218 33.192 8.33952e-05C33.0018 -0.00272556 32.8174 0.0655131 32.675 0.191408C32.5327 0.317303 32.4426 0.49176 32.4225 0.680526C32.4024 0.869292 32.4537 1.05874 32.5664 1.21167C32.6791 1.3646 32.845 1.46996 33.0316 1.50708H33.0217Z"
      fill="url(#paint3_linear_2132_7445)"></path>
    <path
      d="M13.0908 6.40967C13.2773 6.37255 13.4432 6.26718 13.5559 6.11425C13.6686 5.96133 13.72 5.77188 13.6999 5.58311C13.6798 5.39435 13.5897 5.21989 13.4473 5.094C13.305 4.9681 13.1206 4.89986 12.9304 4.90267C12.8764 4.90245 12.8226 4.90822 12.77 4.9199C10.6295 5.38088 8.69181 6.51048 7.23819 8.14478C5.78458 9.77909 4.89062 11.8331 4.68604 14.0087C4.66831 14.21 4.73134 14.4102 4.86127 14.5652C4.92439 14.6428 5.00263 14.7069 5.09128 14.7534C5.17993 14.8 5.27713 14.8281 5.37699 14.8361C5.47688 14.8459 5.57773 14.8359 5.67373 14.8066C5.76972 14.7773 5.85896 14.7294 5.93627 14.6655C6.01359 14.6016 6.07744 14.5231 6.12418 14.4345C6.17092 14.3458 6.19961 14.2488 6.20858 14.1491C6.39116 12.2996 7.15511 10.5551 8.39122 9.16501C9.62732 7.77495 11.2723 6.81053 13.0908 6.40967Z"
      fill="url(#paint4_linear_2132_7445)"></path>
    <path
      d="M12.2344 1.50708C12.4209 1.46996 12.5868 1.3646 12.6995 1.21167C12.8122 1.05874 12.8636 0.869292 12.8435 0.680526C12.8234 0.49176 12.7333 0.317303 12.5909 0.191408C12.4486 0.0655131 12.2642 -0.00272556 12.074 8.33952e-05C12.0209 0.000946957 11.9681 0.00671534 11.9161 0.0173184C8.76233 0.697455 5.90766 2.36229 3.76597 4.77043C1.62428 7.17858 0.306891 10.2048 0.00482715 13.4104C-0.00497642 13.51 0.0052568 13.6105 0.0349194 13.7061C0.064582 13.8017 0.113064 13.8903 0.177549 13.9669C0.240675 14.0446 0.318945 14.1086 0.407593 14.1551C0.496242 14.2017 0.593446 14.2298 0.693304 14.2378C0.793195 14.2476 0.894047 14.2376 0.99004 14.2084C1.08603 14.1791 1.17524 14.1311 1.25256 14.0672C1.32987 14.0034 1.39375 13.9248 1.44049 13.8362C1.48723 13.7476 1.51593 13.6506 1.52489 13.5508C1.80939 10.6729 2.99832 7.95839 4.92176 5.79531C6.84521 3.63224 9.40472 2.13131 12.2344 1.50708Z"
      fill="url(#paint5_linear_2132_7445)"></path>
  </g>
  <defs>
    <linearGradient id="paint0_linear_2132_7445" x1="29.8434" y1="31.445" x2="21.0862" y2="46.3638"
      gradientUnits="userSpaceOnUse">
      <stop stop-color="#FF94A6"></stop>
      <stop offset="0.32" stop-color="#E03DC1"></stop>
      <stop offset="1" stop-color="#8247E5"></stop>
    </linearGradient>
    <linearGradient id="paint1_linear_2132_7445" x1="34.0754" y1="14.9346" x2="15.5785" y2="41.2725"
      gradientUnits="userSpaceOnUse">
      <stop stop-color="#FF94A6"></stop>
      <stop offset="0.32" stop-color="#E03DC1"></stop>
      <stop offset="1" stop-color="#8247E5"></stop>
    </linearGradient>
    <linearGradient id="paint2_linear_2132_7445" x1="48.9799" y1="1.31978" x2="4.03592" y2="31.2148"
      gradientUnits="userSpaceOnUse">
      <stop stop-color="#FF94A6"></stop>
      <stop offset="0.32" stop-color="#E03DC1"></stop>
      <stop offset="1" stop-color="#8247E5"></stop>
    </linearGradient>
    <linearGradient id="paint3_linear_2132_7445" x1="48.5579" y1="0.684638" x2="3.61149"
      y2="30.5797" gradientUnits="userSpaceOnUse">
      <stop stop-color="#FF94A6"></stop>
      <stop offset="0.32" stop-color="#E03DC1"></stop>
      <stop offset="1" stop-color="#8247E5"></stop>
    </linearGradient>
    <linearGradient id="paint4_linear_2132_7445" x1="40.5776" y1="-11.3124" x2="-4.36875"
      y2="18.5827" gradientUnits="userSpaceOnUse">
      <stop stop-color="#FF94A6"></stop>
      <stop offset="0.32" stop-color="#E03DC1"></stop>
      <stop offset="1" stop-color="#8247E5"></stop>
    </linearGradient>
    <linearGradient id="paint5_linear_2132_7445" x1="38.3665" y1="-14.6366" x2="-6.56262"
      y2="15.2511" gradientUnits="userSpaceOnUse">
      <stop stop-color="#FF94A6"></stop>
      <stop offset="0.32" stop-color="#E03DC1"></stop>
      <stop offset="1" stop-color="#8247E5"></stop>
    </linearGradient>
    <clipPath id="clip0_2132_7445">
      <rect width="125" height="48" fill="white"></rect>
    </clipPath>
  </defs>
</svg>