<svg class="w-37.5 h-65 md:mr-14 mb-4 md:mb-0" viewBox="0 0 149 260" fill="none" xmlns="http://www.w3.org/2000/svg"><path d="M112.957 115.649C112.595 115.649 112.24 115.552 111.93 115.367C111.619 115.182 111.364 114.916 111.192 114.598L94.8677 85.674C94.7083 85.4416 94.599 85.1787 94.5467 84.9019C94.4943 84.6252 94.4999 84.3406 94.5634 84.0661C94.6268 83.7916 94.7467 83.5334 94.9153 83.3076C95.0839 83.0818 95.2975 82.8935 95.5427 82.7545C95.7879 82.6155 96.0593 82.5288 96.3398 82.5001C96.6203 82.4714 96.9037 82.5012 97.172 82.5876C97.4404 82.674 97.6878 82.815 97.8987 83.002C98.1096 83.1889 98.2795 83.4175 98.3974 83.6734L114.722 112.631C114.854 112.862 114.938 113.117 114.97 113.381C115.002 113.645 114.981 113.912 114.909 114.168C114.836 114.424 114.713 114.662 114.547 114.87C114.381 115.078 114.175 115.25 113.941 115.378C113.648 115.565 113.305 115.66 112.957 115.649ZM143.401 149.388L116.724 193.842C116.665 193.967 116.585 194.082 116.487 194.181L76.337 258.132C76.1543 258.427 75.8994 258.669 75.5965 258.838C75.2936 259.006 74.9527 259.095 74.606 259.095C74.2594 259.095 73.9185 259.006 73.6155 258.838C73.3126 258.669 73.0577 258.427 72.8751 258.132L5.16669 150.269C1.86151 145.022 0.0741363 138.962 0.00225679 132.762C-0.0696227 126.562 1.57681 120.463 4.75944 115.14L72.8412 1.00471C73.0462 0.655761 73.3507 0.375778 73.7157 0.200586C74.0808 0.0253929 74.4898 -0.037047 74.8906 0.0211922C75.2913 0.0794314 75.6656 0.255709 75.9655 0.527542C76.2655 0.799375 76.4775 1.1544 76.5745 1.54724L143.774 115.039C146.89 120.241 148.504 126.204 148.438 132.266C148.372 138.328 146.629 144.254 143.401 149.388ZM88.9962 151.694L101.554 131.077C102.391 129.712 102.854 128.15 102.896 126.548C102.938 124.947 102.557 123.363 101.791 121.956L76.6424 79.74V92.7269L91.5756 118.803C92.6277 120.638 93.1728 122.72 93.1549 124.835C93.137 126.95 92.5568 129.023 91.4737 130.84L88.0798 136.503C87.8994 136.808 87.6408 137.06 87.3307 137.233C87.0206 137.406 86.67 137.493 86.315 137.486C85.9564 137.497 85.6023 137.403 85.2969 137.215C85.0644 137.082 84.861 136.904 84.6988 136.691C84.5365 136.478 84.4186 136.234 84.3522 135.975C84.2857 135.716 84.272 135.446 84.3118 135.181C84.3517 134.917 84.4443 134.663 84.5841 134.434L87.978 128.738C88.6891 127.545 89.0702 126.185 89.0821 124.797C89.094 123.408 88.7364 122.042 88.0459 120.837L76.6424 100.933V121.346C76.6302 129.438 79.0933 137.341 83.7017 143.996L88.9962 151.694ZM112.448 192.96L80.3417 146.302C75.2639 138.97 72.5519 130.262 72.5697 121.346V9.44791L8.25518 117.243C5.45647 121.918 4.0097 127.277 4.07561 132.724C4.14151 138.171 5.71754 143.493 8.62854 148.099L74.606 253.215L112.448 192.96ZM140.278 117.141L76.6424 9.65135V21.0107L116.08 90.5568C116.213 90.7883 116.3 91.0439 116.335 91.309C116.37 91.5741 116.352 91.8434 116.283 92.1017C116.214 92.3599 116.094 92.6019 115.931 92.8139C115.768 93.026 115.565 93.2038 115.333 93.3373C115.019 93.5061 114.671 93.599 114.315 93.6086C113.957 93.6088 113.606 93.5149 113.296 93.3363C112.986 93.1577 112.729 92.9008 112.55 92.5913L76.6424 29.2504V45.8655L94.4264 76.2475C94.5663 76.4757 94.6589 76.7297 94.6987 76.9943C94.7385 77.259 94.7249 77.5289 94.6584 77.7882C94.592 78.0475 94.4741 78.2908 94.3118 78.5037C94.1496 78.7167 93.9462 78.8949 93.7138 79.0279C93.4067 79.2124 93.0538 79.3065 92.6956 79.2992C92.3406 79.3064 91.99 79.2191 91.6799 79.0463C91.3698 78.8735 91.1113 78.6214 90.9308 78.3159L76.6424 53.9018V71.8733L105.287 119.888V119.955C106.399 122 106.956 124.299 106.902 126.625C106.849 128.951 106.186 131.223 104.982 133.214L91.4399 155.39L97.5149 164.172L116.181 133.756C117.335 131.857 118.998 128.161 116.962 124.703L115.299 121.82C115.165 121.589 115.078 121.333 115.043 121.068C115.008 120.803 115.026 120.534 115.095 120.275C115.165 120.017 115.284 119.775 115.447 119.563C115.61 119.351 115.814 119.173 116.046 119.04C116.516 118.779 117.069 118.711 117.588 118.85C118.108 118.989 118.553 119.325 118.829 119.786L120.492 122.634C122.732 126.534 122.46 131.349 119.643 135.892L100.026 167.834L106.271 176.888L129.961 138.673C131.314 136.478 132.051 133.959 132.093 131.381C132.134 128.803 131.48 126.262 130.198 124.024L116.962 101.035C116.692 100.567 116.619 100.011 116.759 99.4897C116.899 98.9683 117.241 98.5238 117.709 98.254C118.177 97.9842 118.733 97.9112 119.255 98.0511C119.777 98.191 120.222 98.5324 120.492 99L133.728 121.99C135.373 124.865 136.212 128.13 136.158 131.441C136.105 134.753 135.16 137.988 133.422 140.809L108.783 180.55L114.722 189.196L139.837 147.252C139.871 147.252 139.871 147.252 139.871 147.218C142.711 142.731 144.253 137.546 144.325 132.237C144.397 126.928 142.996 121.703 140.278 117.141Z" fill="url(#paint0_linear_2_477)"></path><defs><linearGradient id="paint0_linear_2_477" x1="61.0407" y1="39.6574" x2="1.19901" y2="306.127" gradientUnits="userSpaceOnUse"><stop offset="0.111821" stop-color="#04D2CA"></stop><stop offset="0.816463" stop-color="#6A49E4"></stop></linearGradient></defs></svg>