<svg width="76" height="68" viewBox="0 0 76 68" fill="none" xmlns="http://www.w3.org/2000/svg">
<path d="M27.8902 5.75966C31.7454 -0.986305 41.3833 -0.986287 45.2385 5.75968L71.7718 52.1889C75.627 58.9348 70.808 67.3673 63.0977 67.3673L10.031 67.3673C2.32062 67.3673 -2.49834 58.9348 1.35684 52.1889L27.8902 5.75966Z" fill="#4C49E4"/>
<path d="M35.4854 17.1615C39.1104 10.8029 48.1729 10.8029 51.7979 17.1615L72.2635 53.0604C75.8884 59.419 71.3572 67.3673 64.1072 67.3673H23.1761C15.9261 67.3673 11.3949 59.419 15.0198 53.0604L35.4854 17.1615Z" fill="#3376E7"/>
<path d="M46.7256 28.4254C49.4116 23.7319 56.1267 23.7319 58.8127 28.4254L75.0547 56.8066C77.7407 61.5002 74.3832 67.3671 69.0112 67.3671H36.5271C31.1551 67.3671 27.7975 61.5002 30.4836 56.8066L46.7256 28.4254Z" fill="#26F3A8"/>
</svg>
