<svg viewBox="0 0 60 60" xmlns="http://www.w3.org/2000/svg" width="100%" height="100%" class="w-auto"><path d="M30.0058 34.4255C29.0925 31.9239 27.1369 29.9703 24.6975 29.1166C25.9094 28.659 27.0096 27.9494 27.9249 27.0341C28.8402 26.1189 29.5492 25.019 30.0078 23.8076C30.6783 26.1266 32.8152 28.0186 35.318 29.1166C34.085 29.5358 32.9654 30.2318 32.0464 31.1529C31.1254 32.0739 30.4297 33.1929 30.0097 34.4255"></path><path d="M15.4911 14.6095C16.9574 13.1424 17.2041 11.0119 16.0423 9.84858C14.8804 8.68528 12.7493 8.93332 11.283 10.3986C9.81672 11.8656 9.57002 13.9962 10.7319 15.1595C11.8938 16.3228 14.0248 16.0747 15.4911 14.6095Z"></path><path d="M48.717 47.8351C50.1833 46.368 50.4299 44.2375 49.268 43.0742C48.1061 41.9109 45.9751 42.1589 44.5088 43.6241C43.0425 45.0912 42.7959 47.2217 43.9578 48.385C45.1196 49.5464 47.2506 49.3003 48.717 47.8351Z"></path><path d="M23.499 22.6172C25.5742 20.5425 25.8747 17.4794 24.1714 15.7758C22.4682 14.0721 19.4045 14.3741 17.3313 16.4488C15.2561 18.5235 14.9555 21.5866 16.6588 23.2902C18.3621 24.9938 21.4257 24.692 23.499 22.6172Z"></path><path d="M42.6631 41.7783C44.7382 39.7036 45.0388 36.6405 43.3355 34.9369C41.6323 33.2333 38.5705 33.5352 36.4954 35.6099C34.4202 37.6846 34.1195 40.7477 35.8229 42.4513C37.5262 44.1549 40.5898 43.853 42.6631 41.7783Z"></path><path d="M49.268 15.161C50.4299 13.9996 50.1833 11.8672 48.717 10.4001C47.2506 8.93298 45.1196 8.68684 43.9578 9.85019C42.7959 11.0135 43.0425 13.1439 44.5088 14.6111C45.9751 16.0782 48.1061 16.3243 49.268 15.161Z"></path><path d="M16.0423 48.3856C17.2041 47.2223 16.9574 45.0918 15.4911 43.6247C14.0248 42.1576 11.8938 41.9114 10.7319 43.0748C9.57002 44.2381 9.81672 46.3685 11.283 47.8357C12.7493 49.3028 14.8804 49.5489 16.0423 48.3856Z"></path><path d="M43.3392 23.2902C45.0425 21.5866 44.7419 18.5235 42.6667 16.4488C40.5916 14.3741 37.5298 14.0721 35.8265 15.7758C34.1232 17.4794 34.4239 20.5425 36.499 22.6172C38.5742 24.692 41.6359 24.9938 43.3392 23.2902Z"></path><path d="M24.179 42.4513C25.8823 40.7477 25.5818 37.6846 23.5066 35.6099C21.4314 33.5352 18.3697 33.2333 16.6664 34.9369C14.9631 36.6405 15.2636 39.7036 17.3388 41.7783C19.414 43.853 22.4757 44.1549 24.179 42.4513Z"></path><path d="M30 8.60053C32.0733 8.60053 33.7554 7.26802 33.7554 5.624C33.7554 3.97998 32.0733 2.64746 30 2.64746C27.9267 2.64746 26.2446 3.97998 26.2446 5.624C26.2446 7.26802 27.9267 8.60053 30 8.60053Z"></path><path d="M30 55.5888C32.0733 55.5888 33.7554 54.2563 33.7554 52.6123C33.7554 50.9683 32.0733 49.6357 30 49.6357C27.9267 49.6357 26.2446 50.9683 26.2446 52.6123C26.2446 54.2563 27.9267 55.5888 30 55.5888Z"></path><path d="M53.4938 32.8718C55.1374 32.8718 56.4707 31.1913 56.4707 29.1165C56.4707 27.0419 55.1374 25.3613 53.4938 25.3613C51.8503 25.3613 50.5168 27.0419 50.5168 29.1165C50.5168 31.1913 51.8503 32.8718 53.4938 32.8718Z"></path><path d="M6.50622 32.8718C8.1498 32.8718 9.48315 31.1913 9.48315 29.1165C9.48315 27.0419 8.1498 25.3613 6.50622 25.3613C4.86266 25.3613 3.5293 27.0438 3.5293 29.1185C3.5293 31.1932 4.86266 32.8738 6.50622 32.8738"></path></svg>